<svg width="30" height="30" viewBox="0 0 30 30" fill="none" xmlns="http://www.w3.org/2000/svg">
<path fill-rule="evenodd" clip-rule="evenodd" d="M10.9763 8.71116C11.0636 8.79824 11.1329 8.9017 11.1801 9.01559C11.2274 9.12949 11.2517 9.25159 11.2517 9.37491C11.2517 9.49822 11.2274 9.62032 11.1801 9.73422C11.1329 9.84812 11.0636 9.95157 10.9763 10.0387L6.01315 14.9999L10.9763 19.9612C11.0634 20.0483 11.1326 20.1518 11.1798 20.2657C11.2269 20.3796 11.2512 20.5016 11.2512 20.6249C11.2512 20.7482 11.2269 20.8702 11.1798 20.9841C11.1326 21.098 11.0634 21.2015 10.9763 21.2887C10.8891 21.3758 10.7856 21.445 10.6717 21.4921C10.5579 21.5393 10.4358 21.5636 10.3125 21.5636C10.1893 21.5636 10.0672 21.5393 9.95331 21.4921C9.83942 21.445 9.73594 21.3758 9.64878 21.2887L4.02378 15.6637C3.93647 15.5766 3.8672 15.4731 3.81994 15.3592C3.77268 15.2453 3.74835 15.1232 3.74835 14.9999C3.74835 14.8766 3.77268 14.7545 3.81994 14.6406C3.8672 14.5267 3.93647 14.4232 4.02378 14.3362L9.64878 8.71116C9.73586 8.62385 9.83932 8.55458 9.95321 8.50732C10.0671 8.46006 10.1892 8.43573 10.3125 8.43573C10.4358 8.43573 10.5579 8.46006 10.6718 8.50732C10.7857 8.55458 10.8892 8.62385 10.9763 8.71116Z" fill="black"/>
<path fill-rule="evenodd" clip-rule="evenodd" d="M4.6875 15C4.6875 14.7514 4.78627 14.5129 4.96209 14.3371C5.1379 14.1613 5.37636 14.0625 5.625 14.0625H25.3125C25.5611 14.0625 25.7996 14.1613 25.9754 14.3371C26.1512 14.5129 26.25 14.7514 26.25 15C26.25 15.2486 26.1512 15.4871 25.9754 15.6629C25.7996 15.8387 25.5611 15.9375 25.3125 15.9375H5.625C5.37636 15.9375 5.1379 15.8387 4.96209 15.6629C4.78627 15.4871 4.6875 15.2486 4.6875 15Z" fill="black"/>
</svg>
